# xmcd
#
# Track frame offsets: 
#        150
#        17295
#        33465
#        46630
#        63205
#        73705
#        90160
#        104907
#        119990
#        135870
#        151570
#        167112
#        183592
#        196662
#        216297
#
# Disc length: 3014 seconds
#
# Revision: 2
# Processed by: cddbd v1.5.2PL0 Copyright (c) Steve Scherf et al.
# Submitted via: ExactAudioCopyFreeDBPlugin 1.0
#
DISCID=c00bc40f
DTITLE=Arthur Ebeling - Piggy Dog
DYEAR=1995
DGENRE=Blues
TTITLE0=Life Is A Bitch
TTITLE1=Beautiful
TTITLE2=I'm A Rocker
TTITLE3=Rhythm In The Rain
TTITLE4=What Is It Good For
TTITLE5=As Long As You
TTITLE6=Beat
TTITLE7=Gardenia
TTITLE8=Bad Guy
TTITLE9=Until The Well Runs Dry
TTITLE10=Talk To Me
TTITLE11=I Was Wrong
TTITLE12=Piggy Dog
TTITLE13=I Tried It
TTITLE14=Winter
EXTD=
EXTT0=
EXTT1=
EXTT2=
EXTT3=
EXTT4=
EXTT5=
EXTT6=
EXTT7=
EXTT8=
EXTT9=
EXTT10=
EXTT11=
EXTT12=
EXTT13=
EXTT14=
PLAYORDER=
